<svg width="58" height="58" viewBox="0 0 58 58" fill="none" xmlns="http://www.w3.org/2000/svg">
<path d="M49.181 48.64C60.22 37.302 59.978 19.162 48.64 8.12296C37.302 -2.91604 19.162 -2.67305 8.12301 8.66495C-2.91599 20.003 -2.67297 38.143 8.66503 49.181C20.003 60.22 38.143 59.978 49.181 48.64Z" fill="#231F20"/>
<path d="M47.494 28.6659C47.494 39.0299 38.96 47.5649 28.596 47.5649C18.233 47.5649 9.698 39.0299 9.698 28.6659C9.698 18.3029 18.233 9.76794 28.596 9.76794C38.96 9.76794 47.494 18.3029 47.494 28.6659Z" fill="#404041"/>
<path d="M45.971 28.666C45.971 38.115 38.351 46.04 28.597 46.04C18.843 46.04 11.223 38.42 11.223 28.666C11.223 19.217 18.843 11.292 28.597 11.292C38.351 11.292 45.971 18.912 45.971 28.666Z" fill="#A6A8AB"/>
<path d="M35.606 28.667C35.606 32.629 32.558 35.677 28.596 35.677C24.633 35.677 21.585 32.629 21.585 28.667C21.585 24.704 24.633 21.656 28.596 21.656C32.558 21.656 35.606 24.704 35.606 28.667Z" fill="#404041"/>
<path d="M32.559 28.667C32.559 30.801 30.73 32.629 28.596 32.629C26.463 32.629 24.634 30.801 24.634 28.667C24.634 26.533 26.463 24.704 28.596 24.704C30.73 24.704 32.559 26.533 32.559 28.667Z" fill="#A6A8AB"/>
<path d="M33.168 14.036C33.168 14.95 31.034 17.084 28.596 17.084C26.157 17.084 24.023 14.95 24.023 14.036C24.023 13.122 26.157 12.512 28.596 12.512C31.034 12.512 33.168 13.426 33.168 14.036Z" fill="#231F20"/>
<path d="M21.586 15.254C22.196 15.864 22.196 18.912 20.367 20.436C18.538 22.265 15.49 22.265 15.185 21.655C14.576 21.046 15.49 19.217 17.319 17.388C19.148 15.559 20.977 14.645 21.586 15.254Z" fill="#231F20"/>
<path d="M14.27 24.095C15.185 24.095 17.318 26.228 17.318 28.667C17.318 31.105 15.185 33.239 14.27 33.239C13.356 33.239 12.746 31.105 12.746 28.667C12.746 25.924 13.356 24.095 14.27 24.095Z" fill="#231F20"/>
<path d="M15.185 35.6769C15.795 35.0669 18.843 35.0669 20.367 36.8959C22.196 38.7249 22.196 41.7729 21.586 42.0779C20.977 42.6869 19.148 41.7729 17.319 39.9439C15.49 38.1149 14.576 36.2859 15.185 35.6769Z" fill="#231F20"/>
<path d="M24.023 42.9929C24.023 42.0779 26.157 39.9449 28.596 39.9449C31.034 39.9449 33.168 42.0779 33.168 42.9929C33.168 43.9069 31.034 44.5169 28.596 44.5169C26.157 44.5169 24.023 43.9069 24.023 42.9929Z" fill="#231F20"/>
<path d="M35.607 42.0779C34.997 41.4679 34.997 38.4199 36.826 36.8959C38.655 35.0669 41.703 35.0669 42.008 35.6769C42.313 36.2859 41.703 38.1149 39.874 39.9439C38.045 41.7729 36.216 42.6869 35.607 42.0779Z" fill="#231F20"/>
<path d="M43.228 33.239C42.313 33.239 40.18 31.105 40.18 28.667C40.18 26.228 42.313 24.095 43.228 24.095C44.142 24.095 44.752 26.228 44.752 28.667C44.447 31.105 43.837 33.239 43.228 33.239Z" fill="#231F20"/>
<path d="M42.008 21.655C41.398 22.265 38.35 22.265 36.826 20.436C34.997 18.607 34.997 15.559 35.607 15.254C36.216 14.645 38.045 15.559 39.874 17.388C41.703 19.217 42.617 21.046 42.008 21.655Z" fill="#231F20"/>
</svg>
